<svg height="431pt" viewBox="-5 0 431 431.69" width="431pt" xmlns="http://www.w3.org/2000/svg"><path d="m411.855469 109.269531v314.109375h-30v-138.878906h.460937v-132.359375h-.460937v-42.871094zm0 0" fill="#00efd1"/><path d="m294.003906 219.25h87.851563v65.25h-87.851563zm0 0" fill="#fedb41"/><path d="m294.003906 152.140625h87.851563v67.109375h-87.851563zm0 0" fill="#00acea"/><path d="m210.574219 219.25h83.429687v65.25h-83.429687zm0 0" fill="#00acea"/><g fill="#fedb41"><path d="m210.574219 152.140625h83.429687v67.109375h-83.429687zm0 0"/><path d="m246.714844 8c21.949218.003906 39.742187 17.800781 39.738281 39.75 0 21.949219-17.796875 39.742188-39.75 39.738281-21.949219 0-39.742187-17.796875-39.738281-39.75 0-21.949219 17.796875-39.746093 39.75-39.738281zm0 0"/><path d="m127.15625 219.25h83.417969v65.25h-83.417969zm0 0"/></g><path d="m127.15625 152.140625h83.417969v67.109375h-83.417969zm0 0" fill="#00acea"/><path d="m38.835938 219.25h88.320312v65.25h-88.320312zm0 0" fill="#00acea"/><path d="m38.835938 152.140625h88.320312v67.109375h-88.320312zm0 0" fill="#fedb41"/><path d="m38.835938 219.25v204.128906h-30v-314.109375h30zm0 0" fill="#00efd1"/><path d="m8.835938 431.691406h30c4.417968 0 7.507812-3.894531 7.507812-8.3125v-130.6875h328v130.6875c0 4.417969 3.09375 8.3125 7.511719 8.3125h30c4.574219-.105468 8.285156-3.738281 8.488281-8.3125v-314.109375c0-4.417969-4.070312-7.578125-8.488281-7.578125h-30c-2.027344-.078125-3.992188.699219-5.421875 2.140625-1.425782 1.4375-2.183594 3.414063-2.089844 5.4375v34.421875h-328v-34.421875c.097656-2.023437-.660156-4-2.089844-5.4375-1.425781-1.441406-3.390625-2.21875-5.417968-2.140625h-30c-4.417969 0-8.492188 3.160156-8.492188 7.578125v314.109375c.207031 4.574219 3.917969 8.207032 8.492188 8.3125zm37.507812-155v-49h73v49zm89 0v-49h67v49zm83 0v-49h68v49zm84 0v-49h72v49zm102-159v298h-14v-298zm-30 42v52h-72v-52zm-88 0v52h-68v-52zm-84 0v52h-67v-52zm-83 0v52h-73v-52zm-103-42h14v298h-14zm0 0" fill="#083863"/><path d="m198.964844 47.738281c-.003906 26.371094 21.371094 47.75 47.738281 47.75 26.371094.003907 47.75-21.371093 47.75-47.738281.003906-26.367188-21.371094-47.74609375-47.738281-47.75-26.355469.0273438-47.714844 21.382812-47.75 47.738281zm79.488281 0c.003906 17.535157-14.207031 31.75-31.742187 31.75-17.53125.003907-31.746094-14.210937-31.746094-31.746093 0-17.53125 14.214844-31.746094 31.75-31.742188 17.519531.023438 31.71875 14.21875 31.738281 31.738281zm0 0" fill="#083863"/></svg>