<svg id="Filled" height="512" viewBox="0 0 512 512" width="512" xmlns="http://www.w3.org/2000/svg"><path d="m24 40h464v304h-464z" fill="#e9eef2"/><path d="m24 232 88-48 120 96v64h-208z" fill="#35a872"/><path d="m120 344 240-192 128 104v88z" fill="#3dc285"/><circle cx="216" cy="128" fill="#f7b030" r="40"/><path d="m415.439 440h1.122c8.615 0 15.683-7.307 15.99-16.531l7.449-223.469h-48l7.449 223.469c.307 9.224 7.375 16.531 15.99 16.531z" fill="#734b39"/><path d="m419.07 80c18.642 0 28.93 13.792 28.93 32.727v51.429c0 18.935-13.358 35.844-32 35.844-18.642 0-32-17.065-32-36v-60s1.316-24-24-24z" fill="#d49073"/><path d="m448 112.73v51.43c0 18.93-13.36 35.84-32 35.84a29.943 29.943 0 0 1 -22.99-10.9 38.817 38.817 0 0 1 -9.01-25.1v-4s31.43 8.92 40-16c8.44-24.53 23.52-31.77 23.99-31.99.01.24.01.48.01.72z" fill="none"/><path d="m447.99 112.01c-.47.22-15.55 7.46-23.99 31.99-8.57 24.92-40 16-40 16v-56s1.32-24-24-24h59.07c18.4 0 28.67 13.44 28.92 32.01z" fill="#f7b030"/><path d="m376 200h80v48h-80z" fill="#95573a" transform="matrix(-1 0 0 -1 832 448)"/><path d="m368 472h-48l-32-128h48z" fill="#734b39"/><path d="m192 472h-48l32-128h48z" fill="#734b39"/><path d="m488 32h-464a8 8 0 0 0 -8 8v304a8 8 0 0 0 8 8h141.754l-29.515 118.06a8 8 0 0 0 7.761 9.94h48a8 8 0 0 0 7.761-6.06l30.485-121.94h51.508l30.485 121.94a8 8 0 0 0 7.761 6.06h48a8 8 0 0 0 7.761-9.94l-29.515-118.06h42.816l2.391 71.736c.454 13.606 10.99 24.264 23.986 24.264h1.122c13 0 23.532-10.658 23.985-24.264l2.392-71.736h45.062a8 8 0 0 0 8-8v-304a8 8 0 0 0 -8-8zm-8 16v191.192l-16-13v-26.192a8 8 0 0 0 -8-8h-9.042a46.568 46.568 0 0 0 9.042-27.844v-43.429c0-24.36-14.841-40.727-36.93-40.727h-59.07a8 8 0 0 0 0 16c5.363 0 9.388 1.354 11.961 4.026 4.264 4.426 4.05 11.532 4.051 11.536q-.012.219-.012.438v42.692l-10.955-8.9a8 8 0 0 0 -10.045-.039l-137.058 109.647-101.065-77.741a8 8 0 0 0 -8.708-.682l-76.169 41.547v-170.524zm-96 192v-32h64v32zm10.407-63.97c.589.019 1.183.033 1.783.033 13.405 0 29.168-4.97 35.375-23.013a62.843 62.843 0 0 1 8.435-16.619v27.725c0 13.391-9.176 27.844-24 27.844-10.359 0-17.954-7.1-21.593-15.97zm-5.953-80.03h30.616c14.561 0 19.107 10.273 20.427 18.387-6.2 4.56-16.552 14.534-23.062 33.459-1.56 4.536-4.924 10.71-16.067 11.946a39.378 39.378 0 0 1 -8.368-.035v-47.586a35.368 35.368 0 0 0 -3.546-16.171zm-356.454 140.749 79.254-43.229 93.825 72.172-87.885 70.308h-85.194zm153.754 227.251h-31.508l28-112h31.508zm172 0h-31.508l-28-112h31.508zm-214.948-128 217.155-173.724 17.739 14.416a45.485 45.485 0 0 0 7.468 15.308h-9.168a8 8 0 0 0 -8 8v48a8 8 0 0 0 8 8h9.862l2.667 80zm273.755 96h-1.122c-4.318 0-7.83-3.864-8-8.8l-5.568-167.2h28.258l-5.574 167.2c-.164 4.936-3.676 8.8-7.994 8.8zm26.91-96 2.667-80h9.862a8 8 0 0 0 8-8v-1.192l16 13v76.192z"/><path d="m216 176a48 48 0 1 0 -48-48 48.055 48.055 0 0 0 48 48zm0-80a32 32 0 1 1 -32 32 32.036 32.036 0 0 1 32-32z"/></svg>