<?xml version="1.0" encoding="iso-8859-1"?>
<!-- Generator: Adobe Illustrator 19.0.0, SVG Export Plug-In . SVG Version: 6.00 Build 0)  -->
<svg version="1.1" id="Capa_1" xmlns="http://www.w3.org/2000/svg" xmlns:xlink="http://www.w3.org/1999/xlink" x="0px" y="0px"
	 viewBox="0 0 512 512" style="enable-background:new 0 0 512 512;" xml:space="preserve">
<g>
	<path style="fill:#FCF05A;" d="M511.864,8.529v102.345c0.026-4.708-3.77-8.554-8.478-8.58c-2.294-0.017-4.495,0.896-6.107,2.525
		l-14.584,14.584h-78.124l2.473-2.473c3.343-3.318,3.369-8.716,0.051-12.06c-1.612-1.629-3.812-2.533-6.107-2.525h93.817V17.058
		H17.194v85.288h93.817c-4.708-0.026-8.554,3.77-8.58,8.478c-0.017,2.294,0.896,4.495,2.525,6.107l2.473,2.473H29.305
		l-14.584-14.584c-3.318-3.343-8.716-3.369-12.06-0.051c-1.629,1.612-2.542,3.812-2.525,6.107V8.529C0.137,3.821,3.957,0,8.665,0
		h494.67C508.043,0,511.864,3.821,511.864,8.529z"/>
	<path style="fill:#FCF05A;" d="M511.864,110.874c0.009,0.725-0.102,1.45-0.341,2.132c-0.034,0.418-0.154,0.819-0.341,1.194
		c-0.409,1.015-1.023,1.945-1.791,2.729c-1.62,1.586-3.787,2.473-6.055,2.473h-20.64l14.584-14.584
		c3.318-3.343,8.716-3.369,12.06-0.051C510.968,106.38,511.881,108.58,511.864,110.874z"/>
</g>
<path d="M511.181,114.2c0.188-0.375,0.307-0.776,0.341-1.194C511.497,113.424,511.386,113.834,511.181,114.2z"/>
<path d="M511.181,114.2c-0.409,1.015-1.023,1.945-1.791,2.729C510.158,116.145,510.772,115.215,511.181,114.2z"/>
<path style="fill:#FDBD40;" d="M509.39,116.93L349.902,276.418c-4.136-3.974-8.529-7.676-13.134-11.087l145.928-145.928h20.64
	C505.604,119.403,507.77,118.516,509.39,116.93z"/>
<polygon style="fill:#FCF05A;" points="494.806,17.058 494.806,102.345 400.989,102.345 111.011,102.345 17.194,102.345 
	17.194,17.058 "/>
<path style="fill:#DD3E46;" d="M482.695,119.403L336.768,265.331c-16.119-11.838-34.635-19.983-54.243-23.881l122.047-122.047
	H482.695z"/>
<path style="fill:#FCF05A;" d="M407.045,104.819c3.326,3.352,3.326,8.759,0,12.111l-2.473,2.473H380.35l14.584-14.584
	C398.294,101.518,403.685,101.518,407.045,104.819z"/>
<path style="fill:#FDBD40;" d="M404.572,119.403L282.525,241.45c-7.139-1.467-14.38-2.32-21.663-2.559L380.35,119.403H404.572z"/>
<g>
	<path style="fill:#FCF05A;" d="M111.011,102.345h289.979c-2.269-0.009-4.443,0.878-6.055,2.473l-14.584,14.584H131.65
		l-14.584-14.584C115.454,103.224,113.279,102.337,111.011,102.345z"/>
	<path style="fill:#FCF05A;" d="M349.902,276.418c54.687,51.864,56.972,138.235,5.109,192.913s-138.235,56.972-192.913,5.109
		c-54.678-51.864-56.972-138.235-5.109-192.913c1.655-1.748,3.36-3.454,5.109-5.109l2.559,2.559c3.36,3.301,8.751,3.301,12.111,0
		c3.326-3.352,3.326-8.759,0-12.111l-1.535-1.535c16.119-11.838,34.635-19.983,54.243-23.881l11.94,11.94
		c3.36,3.301,8.751,3.301,12.111,0c1.595-1.612,2.482-3.787,2.473-6.055c-0.009,2.269,0.878,4.443,2.473,6.055
		c3.36,3.301,8.751,3.301,12.111,0l11.94-11.94c19.608,3.898,38.124,12.043,54.243,23.881l-1.535,1.535
		c-3.326,3.352-3.326,8.759,0,12.111c3.36,3.301,8.751,3.301,12.111,0L349.902,276.418z M375.403,375.267
		c0-65.945-53.458-119.403-119.403-119.403s-119.403,53.458-119.403,119.403S190.056,494.67,256,494.67
		C321.919,494.601,375.335,441.186,375.403,375.267z"/>
	<path style="fill:#FCF05A;" d="M349.902,276.418l-2.559,2.559c-3.36,3.301-8.751,3.301-12.111,0c-3.326-3.352-3.326-8.759,0-12.111
		l1.535-1.535C341.373,268.742,345.766,272.444,349.902,276.418z"/>
	<path style="fill:#FCF05A;" d="M256,255.864c65.945,0,119.403,53.458,119.403,119.403S321.945,494.67,256,494.67
		s-119.403-53.458-119.403-119.403C136.665,309.348,190.081,255.932,256,255.864z M349.817,375.267
		c0-51.812-42.004-93.817-93.817-93.817s-93.817,42.004-93.817,93.817s42.004,93.817,93.817,93.817
		C307.804,469.049,349.783,427.07,349.817,375.267z"/>
</g>
<path style="fill:#FDBD40;" d="M338.9,354.542c3.258-3.403,3.139-8.802-0.264-12.06c-1.262-1.211-2.874-2.004-4.597-2.269
	l-10.661-1.62c-11.045-20.281-30.61-34.533-53.305-38.806l-6.311-13.39c-1.399-3.019-4.426-4.955-7.761-4.947
	c51.812,0.026,93.8,42.047,93.774,93.859c-0.017,31.122-15.463,60.213-41.237,77.655l-1.279-1.791
	c0.384-0.196,0.759-0.426,1.109-0.682c2.652-1.893,4.009-5.134,3.497-8.358l-1.962-12.281
	c14.618-14.397,22.857-34.064,22.857-54.584c-0.026-4.461-0.392-8.904-1.109-13.305L338.9,354.542z"/>
<path style="fill:#FCF05A;" d="M340.862,345.928c1.015,3.011,0.256,6.337-1.962,8.614l-7.249,7.42
	c-1.501-8.179-4.299-16.068-8.273-23.369l10.661,1.62C337.22,340.657,339.864,342.874,340.862,345.928z"/>
<path style="fill:#FDBD40;" d="M331.65,361.962c0.716,4.401,1.083,8.844,1.109,13.305c0,20.52-8.239,40.188-22.857,54.584
	l-6.397-39.062L331.65,361.962z"/>
<path style="fill:#FCF05A;" d="M331.65,361.962l-28.145,28.827l6.397,39.062c-6.26,6.269-13.595,11.352-21.663,15.011L256,427.036
	l-32.239,17.825c-8.068-3.659-15.403-8.742-21.663-15.011l6.397-39.062l-28.145-28.827c1.501-8.179,4.299-16.068,8.273-23.369
	l37.868-5.8l15.437-33.006c9.305-1.706,18.84-1.706,28.145,0l15.437,33.006l37.868,5.8
	C327.352,345.893,330.149,353.783,331.65,361.962z M288.239,382.004l26.866-27.463l-36.674-5.629
	c-2.797-0.418-5.203-2.209-6.397-4.776L256,310.021l-16.034,34.115c-1.194,2.567-3.599,4.358-6.397,4.776l-36.674,5.629
	l26.866,27.463c1.885,1.945,2.746,4.665,2.303,7.335l-6.226,38.209l32.068-17.74c2.533-1.475,5.655-1.475,8.188,0l32.068,17.74
	l-6.226-38.209C285.493,386.67,286.354,383.949,288.239,382.004z"/>
<path style="fill:#FDBD40;" d="M323.378,338.593l-37.868-5.8l-15.437-33.006C292.768,304.068,312.333,318.311,323.378,338.593z"/>
<path style="fill:#DD3E46;" d="M315.105,354.542l-26.866,27.463c-1.885,1.945-2.746,4.665-2.303,7.335l6.226,38.209l-32.068-17.74
	c-2.533-1.475-5.655-1.475-8.188,0l-32.068,17.74l6.226-38.209c0.443-2.67-0.418-5.39-2.303-7.335l-26.866-27.463l36.674-5.629
	c2.797-0.418,5.203-2.209,6.397-4.776L256,310.021l16.034,34.115c1.194,2.567,3.599,4.358,6.397,4.776L315.105,354.542z"/>
<path style="fill:#FCF05A;" d="M311.864,442.132c0.512,3.224-0.844,6.465-3.497,8.358c-0.35,0.256-0.725,0.486-1.109,0.682
	c-1.194,0.571-2.507,0.87-3.838,0.853c-1.424-0.009-2.832-0.358-4.094-1.023l-11.087-6.141c8.068-3.659,15.403-8.742,21.663-15.011
	L311.864,442.132z"/>
<g>
	<path style="fill:#FDBD40;" d="M307.258,451.173l1.279,1.791c-32.102,21.74-74.277,21.467-106.098-0.682l1.194-1.791
		c2.678,1.859,6.175,2.064,9.041,0.512l11.087-6.141c20.435,9.552,44.043,9.552,64.478,0l11.087,6.141
		c1.262,0.665,2.669,1.015,4.094,1.023C304.751,452.043,306.064,451.744,307.258,451.173z"/>
	<path style="fill:#FDBD40;" d="M256,427.036l32.239,17.825c-20.435,9.552-44.043,9.552-64.478,0L256,427.036z"/>
</g>
<g>
	<path style="fill:#FCF05A;" d="M282.525,241.45l-11.94,11.94c-3.36,3.301-8.751,3.301-12.111,0c-3.301-3.36-3.301-8.751,0-12.111
		l2.388-2.388C268.145,239.13,275.386,239.983,282.525,241.45z"/>
	<path style="fill:#FCF05A;" d="M263.761,286.397l6.311,13.39c-9.305-1.706-18.84-1.706-28.145,0l6.311-13.39
		c1.953-4.29,7.011-6.175,11.301-4.222C261.407,283.028,262.908,284.529,263.761,286.397z"/>
	<path style="fill:#FCF05A;" d="M260.862,238.891l-2.388,2.388c-1.595,1.612-2.482,3.787-2.473,6.055
		c0.009-2.269-0.878-4.443-2.473-6.055l-2.388-2.388c1.62-0.085,3.241-0.085,4.861-0.085S259.241,238.806,260.862,238.891z"/>
	<path style="fill:#FCF05A;" d="M253.527,241.279c3.301,3.36,3.301,8.751,0,12.111c-3.36,3.301-8.751,3.301-12.111,0l-11.94-11.94
		c7.139-1.467,14.38-2.32,21.663-2.559L253.527,241.279z"/>
</g>
<g>
	<path style="fill:#FDBD40;" d="M131.65,119.403l119.488,119.488c-7.284,0.239-14.525,1.092-21.663,2.559L107.429,119.403H131.65z"
		/>
	<path style="fill:#FDBD40;" d="M256,281.45c-3.335-0.009-6.362,1.928-7.761,4.947l-6.311,13.39
		c-22.695,4.273-42.26,18.525-53.305,38.806l-10.661,1.62c-4.657,0.716-7.846,5.075-7.13,9.731c0.264,1.731,1.058,3.335,2.269,4.597
		l7.249,7.42c-0.716,4.401-1.083,8.844-1.109,13.305c0,20.52,8.239,40.188,22.857,54.584l-1.962,12.281
		c-0.512,3.224,0.844,6.465,3.497,8.358l-1.194,1.791c-42.533-29.586-53.032-88.06-23.437-130.593
		C196.537,296.486,225.296,281.458,256,281.45z"/>
	<path style="fill:#FDBD40;" d="M241.928,299.787l-15.437,33.006l-37.868,5.8C199.667,318.311,219.233,304.068,241.928,299.787z"/>
</g>
<path style="fill:#DD3E46;" d="M107.429,119.403L229.476,241.45c-19.608,3.898-38.124,12.043-54.243,23.881L29.305,119.403H107.429z
	"/>
<path style="fill:#FCF05A;" d="M223.761,444.861l-11.087,6.141c-4.119,2.277-9.313,0.785-11.591-3.343
	c-0.93-1.68-1.262-3.633-0.947-5.527l1.962-12.281C208.358,436.119,215.693,441.203,223.761,444.861z"/>
<path style="fill:#FDBD40;" d="M180.35,361.962l28.145,28.827l-6.397,39.062c-14.618-14.397-22.857-34.064-22.857-54.584
	C179.267,370.806,179.633,366.362,180.35,361.962z"/>
<g>
	<path style="fill:#FCF05A;" d="M177.962,340.213l10.661-1.62c-3.974,7.301-6.772,15.19-8.273,23.369l-7.249-7.42
		c-3.258-3.403-3.139-8.802,0.264-12.06C174.627,341.271,176.23,340.478,177.962,340.213z"/>
	<path style="fill:#FCF05A;" d="M176.768,266.866c3.326,3.352,3.326,8.759,0,12.111c-3.36,3.301-8.751,3.301-12.111,0l-2.559-2.559
		c4.136-3.974,8.529-7.676,13.134-11.087L176.768,266.866z"/>
</g>
<path style="fill:#FDBD40;" d="M29.305,119.403l145.928,145.928c-4.606,3.411-8.998,7.113-13.134,11.087L2.61,116.93
	c1.62,1.586,3.787,2.473,6.055,2.473H29.305z"/>
<g>
	<path style="fill:#FCF05A;" d="M131.65,119.403h-24.222l-2.473-2.473c-3.343-3.343-3.343-8.768,0-12.111s8.768-3.343,12.111,0
		L131.65,119.403z"/>
	<path style="fill:#FCF05A;" d="M29.305,119.403H8.665c-2.269,0-4.435-0.887-6.055-2.473c-0.768-0.785-1.382-1.714-1.791-2.729
		c-0.188-0.375-0.307-0.776-0.341-1.194c-0.239-0.682-0.35-1.407-0.341-2.132c-0.026-4.708,3.77-8.554,8.478-8.58
		c2.294-0.017,4.495,0.896,6.107,2.525L29.305,119.403z"/>
</g>
<path d="M0.819,114.2c0.409,1.015,1.023,1.945,1.791,2.729C1.842,116.145,1.228,115.215,0.819,114.2z"/>
<path d="M0.478,113.006c0.034,0.418,0.154,0.819,0.341,1.194C0.614,113.834,0.503,113.424,0.478,113.006z"/>
<path d="M256,281.45c-51.812,0-93.817,42.004-93.817,93.817s42.004,93.817,93.817,93.817s93.817-42.004,93.817-93.817
	C349.757,323.48,307.787,281.51,256,281.45z M241.945,299.855l-15.454,32.913l-37.868,5.825
	C199.685,318.337,219.258,304.111,241.945,299.855z M202.141,429.851c-18.064-17.586-26.183-43.002-21.68-67.804l28.051,28.751
	L202.141,429.851z M256,452.026c-11.139-0.009-22.141-2.465-32.23-7.19L256,427.011l32.23,17.825
	C278.141,449.561,267.139,452.017,256,452.026z M260.128,409.808c-2.567-1.424-5.689-1.424-8.256,0l-32.068,17.723l6.235-38.209
	c0.435-2.67-0.426-5.39-2.311-7.326l-26.789-27.463l36.674-5.595c2.806-0.426,5.22-2.226,6.431-4.802l16-34.115l16,34.115
	c1.211,2.576,3.625,4.375,6.431,4.802l36.631,5.595l-26.789,27.463c-1.885,1.936-2.746,4.657-2.311,7.326l6.235,38.209
	L260.128,409.808z M332.759,375.267c0,20.529-8.247,40.196-22.9,54.584l-6.371-39.053l28.051-28.751
	C332.324,366.414,332.734,370.832,332.759,375.267z M285.51,332.768l-15.454-32.913c22.687,4.256,42.26,18.482,53.322,38.738
	L285.51,332.768z"/>
<path d="M503.335,0H8.665C3.957,0,0.137,3.821,0.137,8.529v102.345c0.009,1.117,0.23,2.226,0.657,3.258
	c0.426,1.041,1.058,1.987,1.851,2.78l159.539,159.531c-54.729,51.812-57.092,138.183-5.279,192.913s138.183,57.092,192.913,5.279
	s57.092-138.183,5.279-192.913c-1.714-1.808-3.471-3.565-5.279-5.279l159.531-159.488c0.793-0.793,1.424-1.74,1.851-2.78
	c0.435-1.049,0.665-2.166,0.665-3.301V8.529C511.864,3.821,508.043,0,503.335,0z M29.254,119.403h78.226l122.03,122.03
	c-19.616,3.915-38.124,12.128-54.192,24.034L29.254,119.403z M131.599,119.403h248.802L260.759,239.045
	c-1.595-0.051-3.156-0.239-4.759-0.239c-1.603,0-3.164,0.188-4.759,0.239L131.599,119.403z M375.403,375.267
	c0,65.945-53.458,119.403-119.403,119.403s-119.403-53.458-119.403-119.403S190.056,255.864,256,255.864
	C321.919,255.932,375.335,309.348,375.403,375.267z M336.682,265.467c-16.068-11.906-34.576-20.119-54.192-24.034l122.03-122.03
	h78.226L336.682,265.467z M494.806,102.345H17.194V17.058h477.612V102.345z"/>
<g>
</g>
<g>
</g>
<g>
</g>
<g>
</g>
<g>
</g>
<g>
</g>
<g>
</g>
<g>
</g>
<g>
</g>
<g>
</g>
<g>
</g>
<g>
</g>
<g>
</g>
<g>
</g>
<g>
</g>
</svg>
