<svg height="512pt" viewBox="0 0 512 512.00273" width="512pt" xmlns="http://www.w3.org/2000/svg"><path d="m405.933594 0 38.894531 38.894531-21.214844 21.210938-38.894531-38.890625zm0 0" fill="#53433f"/><path d="m363.507812 42.425781 31.820313 31.820313-21.214844 21.214844-31.820312-31.820313zm0 0" fill="#53433f"/><path d="m271.265625 474.085938c-84.855469 84.851562-163.554687 6.148437-201.527344-31.820313-37.96875-37.972656-116.671875-116.671875-31.820312-201.527344 60.882812-60.878906 183.707031-105.214843 256.46875-73.183593l50.0625 50.0625c32.03125 72.761718-12.304688 195.585937-73.183594 256.46875zm0 0" fill="#f4d7af"/><path d="m271.265625 474.085938c-84.855469 84.851562-163.554687 6.148437-201.527344-31.820313l249.679688-249.679687 25.03125 25.03125c32.03125 72.761718-12.304688 195.585937-73.183594 256.46875zm0 0" fill="#dabba6"/><path d="m512 63.644531-252.011719 252.011719-63.640625-63.640625 177.769532-177.765625 86.546874-61.941406zm0 0" fill="#725d57"/><path d="m480.179688 74.246094 31.820312 31.820312-21.214844 21.210938-31.820312-31.820313zm0 0" fill="#3e322e"/><path d="m437.753906 116.671875 31.820313 31.820313-21.214844 21.210937-31.820313-31.820313zm0 0" fill="#3e322e"/><path d="m101.5625 261.949219 21.210938 21.214843-21.210938 21.210938-21.214844-21.210938zm0 0" fill="#53433f"/><path d="m228.839844 389.226562 21.214844 21.214844-21.214844 21.210938-21.214844-21.210938zm0 0" fill="#3e322e"/><path d="m162.691406 285.667969 21.214844 21.214843-71.738281 71.738282-21.214844-21.210938zm0 0" fill="#faecd8"/><path d="m205.121094 328.09375 21.210937 21.214844-71.738281 71.738281-21.214844-21.210937zm0 0" fill="#f4d7af"/><path d="m480.179688 31.820312 31.820312 31.820313-252.011719 252.007813-31.820312-31.816407zm0 0" fill="#53433f"/><path d="m260.660156 251.34375c-23.335937-23.332031-61.519531-23.332031-84.855468 0-23.332032 23.335938-23.332032 61.519531 0 84.855469 23.335937 23.332031 61.519531 23.332031 84.855468 0 23.332032-23.335938 23.332032-61.519531 0-84.855469zm0 0" fill="#53433f"/><path d="m260.660156 336.199219c-23.335937 23.332031-61.519531 23.332031-84.855468 0l84.855468-84.855469c23.332032 23.335938 23.332032 61.519531 0 84.855469zm0 0" fill="#3e322e"/><path d="m59.128906 346.804688 21.214844-21.214844 106.0625 106.066406-21.210938 21.210938zm0 0" fill="#725d57"/><path d="m112.164062 399.835938 21.210938-21.210938 53.03125 53.03125-21.210938 21.214844zm0 0" fill="#53433f"/></svg>